<?xml version="1.0" encoding="utf-8"?><!-- Uploaded to: SVG Repo, www.svgrepo.com, Generator: SVG Repo Mixer Tools -->
<svg width="800px" height="800px" viewBox="0 0 24 24" xmlns="http://www.w3.org/2000/svg" fill="none"><path stroke="#000000" stroke-linecap="round" stroke-linejoin="round" stroke-width="2" d="M7 9v0a4 4 0 0 0-4 4v6a2 2 0 0 0 2 2h14a2 2 0 0 0 2-2v-6a4 4 0 0 0-4-4v0M7 9h10M7 9V6m10 3V6m-5 0v3m0-6h.01M7 3h.01M17 3h.01"/><path stroke="#000000" stroke-linecap="round" stroke-linejoin="round" stroke-width="2" d="M3 13c0 1 .6 3 3 3s3-2 3-3c0 1 .6 3 3 3s3-2 3-3c0 1 .6 3 3 3s3-2 3-3"/></svg>